<svg width="88" height="88" viewBox="0 0 88 88" fill="none" xmlns="http://www.w3.org/2000/svg">
<rect width="88" height="88" rx="16" fill="#0A131C"/>
<path d="M37.7778 46.6667L42.2222 52L48.4444 44L56.4444 54.6667H31.5556M60 56.4444V31.5556C60 29.5822 58.4 28 56.4444 28H31.5556C30.6126 28 29.7082 28.3746 29.0414 29.0414C28.3746 29.7082 28 30.6126 28 31.5556V56.4444C28 57.3874 28.3746 58.2918 29.0414 58.9586C29.7082 59.6254 30.6126 60 31.5556 60H56.4444C57.3874 60 58.2918 59.6254 58.9586 58.9586C59.6254 58.2918 60 57.3874 60 56.4444Z" fill="white"/>
</svg>
