<svg width="32" height="32" viewBox="0 0 32 32" fill="none" xmlns="http://www.w3.org/2000/svg">
<rect width="32" height="32" rx="16" fill="#E8EAEB"/>
<path d="M12.8889 17.3333L15.1111 20L18.2222 16L22.2222 21.3333H9.77778M24 22.2222V9.77778C24 8.79111 23.2 8 22.2222 8H9.77778C9.30628 8 8.8541 8.1873 8.5207 8.5207C8.1873 8.8541 8 9.30628 8 9.77778V22.2222C8 22.6937 8.1873 23.1459 8.5207 23.4793C8.8541 23.8127 9.30628 24 9.77778 24H22.2222C22.6937 24 23.1459 23.8127 23.4793 23.4793C23.8127 23.1459 24 22.6937 24 22.2222Z" fill="#1A2F43"/>
</svg>
