<svg width="88" height="116" viewBox="0 0 88 116" fill="none" xmlns="http://www.w3.org/2000/svg">
<rect width="88" height="116" rx="16" fill="#0A131C"/>
<path d="M37.7778 60.6667L42.2222 66L48.4444 58L56.4444 68.6667H31.5556M60 70.4444V45.5556C60 43.5822 58.4 42 56.4444 42H31.5556C30.6126 42 29.7082 42.3746 29.0414 43.0414C28.3746 43.7082 28 44.6126 28 45.5556V70.4444C28 71.3874 28.3746 72.2918 29.0414 72.9586C29.7082 73.6254 30.6126 74 31.5556 74H56.4444C57.3874 74 58.2918 73.6254 58.9586 72.9586C59.6254 72.2918 60 71.3874 60 70.4444Z" fill="white"/>
</svg>
