<svg width="80" height="80" viewBox="0 0 80 80" fill="none" xmlns="http://www.w3.org/2000/svg">
    <rect width="80" height="80" rx="40" fill="#E8EAEB"/>
    <path d="M33.7778 42.6667L38.2222 48L44.4444 40L52.4444 50.6667H27.5556M56 52.4444V27.5556C56 25.5822 54.4 24 52.4444 24H27.5556C26.6126 24 25.7082 24.3746 25.0414 25.0414C24.3746 25.7082 24 26.6126 24 27.5556V52.4444C24 53.3874 24.3746 54.2918 25.0414 54.9586C25.7082 55.6254 26.6126 56 27.5556 56H52.4444C53.3874 56 54.2918 55.6254 54.9586 54.9586C55.6254 54.2918 56 53.3874 56 52.4444Z" fill="#1A2F43"/>
</svg>
