<svg width="148" height="148" viewBox="0 0 148 148" fill="none" xmlns="http://www.w3.org/2000/svg">
    <rect width="148" height="148" rx="16" fill="#0A131C"/>
    <path d="M66.2222 77.3333L71.7778 84L79.5556 74L89.5556 87.3333H58.4444M94 89.5556V58.4444C94 55.9778 92 54 89.5556 54H58.4444C57.2657 54 56.1352 54.4683 55.3017 55.3017C54.4683 56.1352 54 57.2657 54 58.4444V89.5556C54 90.7343 54.4683 91.8648 55.3017 92.6983C56.1352 93.5317 57.2657 94 58.4444 94H89.5556C90.7343 94 91.8648 93.5317 92.6983 92.6983C93.5317 91.8648 94 90.7343 94 89.5556Z" fill="white"/>
</svg>
