<svg width="180" height="80" viewBox="0 0 180 80" fill="none" xmlns="http://www.w3.org/2000/svg">
    <g clip-path="url(#clip0_276_8542)">
        <path fill-rule="evenodd" clip-rule="evenodd" d="M55.9994 6.8798V7.75474C55.9994 10.6177 53.6034 12.9388 50.6478 12.9388H49.742C49.2402 12.9388 48.8362 12.5451 48.8362 12.059V6.8798C48.8362 6.39372 49.2402 6 49.742 6H55.0912C55.593 6 55.9994 6.39372 55.9994 6.8798ZM48.8368 55.5528C48.8368 52.4272 45.1466 42.2882 43.6548 39.3152L43.5762 39.1628C43.3668 38.8578 43.1836 38.6036 43.0266 38.4004C45.7746 35.0462 47.188 31.0058 47.188 26.4318C47.188 23.0776 46.3242 17.4363 41.4562 12.9385C42.8696 12.8623 44.2828 12.7098 45.4606 12.4811L46.7954 12.2524L46.8738 8.82192C46.8738 8.05958 46.6382 7.44972 46.0886 6.99232C45.6176 6.61116 44.9894 6.45868 44.3614 6.53492C37.637 6.98006 33.9618 6.63096 30.8024 6.33086C30.7154 6.3226 30.6288 6.31438 30.5426 6.3062C28.8938 6.15374 27.245 6.00128 25.439 6.00128C12.2485 6.00128 2.59104 14.3107 2.59104 25.8982C2.66954 31.2344 4.9465 36.0372 8.87228 39.5438C8.9508 39.6202 10.7567 41.1448 12.0914 42.0596L12.1699 42.1358C12.2866 42.1988 12.4096 42.2658 12.5391 42.3364C14.7635 43.5488 18.8926 45.7992 25.125 45.8712H25.5176C29.9144 45.8712 34.0758 44.804 37.5304 42.8982C37.6068 43.096 37.7118 43.3636 37.8382 43.6856C38.8798 46.3414 41.3778 52.7096 41.3778 54.4094C41.3778 58.4496 39.6504 59.7456 34.5468 59.7456H20.0214V59.3644V51.2838C20.0214 49.9116 19.0008 48.9206 17.5875 48.9206H14.918C13.5047 48.9206 12.484 49.9116 12.484 51.2838V59.5932H2.43398C1.02071 59.5932 0 60.5842 0 61.8802V63.4048C0 64.9138 1.18588 65.4746 1.71659 65.7256C1.74892 65.7408 1.77882 65.755 1.80587 65.768L2.04142 65.8444H2.35546C12.798 66.7592 12.9551 67.369 13.9758 72.1716V72.3242C14.2898 73.0864 14.918 74.0012 16.4098 74.0012H17.666C19.0008 74.0012 20.0214 73.0102 20.0214 71.638V67.674H35.175C43.9688 67.674 48.8368 63.4048 48.8368 55.5528ZM39.2578 26.1268C39.2578 29.7098 38.0016 32.8354 35.6462 35.1224C33.1336 37.5618 29.5218 38.7816 25.282 38.7816C16.6453 38.7816 10.5211 33.4452 10.5211 25.822C10.5211 17.4363 17.823 13.091 24.968 13.091C33.4476 13.091 39.2578 18.4273 39.2578 26.1268Z" fill="#E17900"/>
        <path fill-rule="evenodd" clip-rule="evenodd" d="M87.6414 28.0684H84.834V32.3602C83.6308 32.9896 82.313 33.333 81.1672 33.333C77.9014 33.333 75.323 31.044 75.323 28.0112C75.323 25.0356 77.844 22.6896 81.1098 22.6896C82.8288 22.6896 84.6622 23.3762 85.9226 24.4634L87.756 22.289C86.0946 20.9156 83.5736 20 81.1098 20C75.9534 20 72 23.4906 72 28.0112C72 32.532 75.896 36.0798 80.938 36.0798C83.287 36.0798 85.9226 35.2214 87.6414 34.0198V28.0684ZM108.21 22.804V20.1144H94.345V22.804H99.616V35.908H102.882V22.804H108.21ZM87.6988 51.9878H84.834V56.2796C83.6882 56.909 82.3704 57.3096 81.1672 57.3096C77.9014 57.3096 75.323 54.9634 75.323 51.9306C75.323 48.955 77.9014 46.6088 81.1672 46.6088C82.886 46.6088 84.6622 47.2956 85.98 48.44L87.8134 46.2082C86.0946 44.835 83.6308 43.9194 81.1672 43.9194C76.0106 43.9194 72 47.41 72 51.9306C72 56.5084 75.896 59.9992 80.9952 59.9992C83.3444 59.9992 85.9226 59.1408 87.6988 57.939V51.9878ZM103.913 55.191L106.835 59.826H110.559L106.835 54.6188C109.012 53.7604 110.215 51.9864 110.215 49.4686C110.215 45.978 107.694 44.0324 103.34 44.0324H96.2352V59.826H99.501V55.191H103.34H103.913ZM103.283 52.5014H99.501V46.6646H103.283C105.746 46.6646 107.064 47.6374 107.064 49.583C107.064 51.5286 105.746 52.5014 103.283 52.5014ZM126.258 59.9978C131.414 59.9978 135.31 56.4498 135.31 51.9292C135.31 47.4086 131.414 43.918 126.258 43.918C121.158 43.918 117.262 47.3514 117.262 51.9292C117.262 56.4498 121.158 59.9978 126.258 59.9978ZM126.315 57.251C123.221 57.251 120.586 54.9048 120.586 51.9292C120.586 48.9536 123.164 46.6074 126.315 46.6074C129.409 46.6074 131.987 48.9536 131.987 51.9292C131.987 54.9048 129.409 57.251 126.315 57.251ZM154.389 53.2454C154.389 55.7632 152.785 57.251 150.207 57.251C147.629 57.251 145.91 55.7632 145.91 53.2454V44.0324H142.701V53.2454C142.701 57.3654 145.566 59.9978 150.207 59.9978C154.79 59.9978 157.655 57.3654 157.655 53.2454V44.0324H154.389V53.2454ZM173.297 55.191C177.536 55.191 180 53.0736 180 49.4686C180 45.978 177.536 44.0324 173.297 44.0324H166.307V59.826H169.573V55.191H173.297ZM173.125 46.6646C175.531 46.6646 176.906 47.5802 176.906 49.5258C176.906 51.5286 175.531 52.5014 173.125 52.5014H169.573V46.6646H173.125Z" fill="white"/>
    </g>
    <defs>
        <clipPath id="clip0_276_8542">
            <rect width="180" height="80" fill="white"/>
        </clipPath>
    </defs>
</svg>
