<svg width="90" height="40" viewBox="0 0 90 40" fill="none" xmlns="http://www.w3.org/2000/svg">
<path fill-rule="evenodd" clip-rule="evenodd" d="M27.9999 3.43954V3.87701C27.9999 5.30851 26.8018 6.46902 25.324 6.46902H24.8711C24.6202 6.46902 24.4182 6.27216 24.4182 6.02912V3.43954C24.4182 3.1965 24.6202 2.99963 24.8711 2.99963H27.5457C27.7966 2.99963 27.9999 3.1965 27.9999 3.43954ZM24.4185 27.7761C24.4185 26.2133 22.5734 21.1438 21.8275 19.6572L21.7882 19.581C21.6835 19.4285 21.5919 19.3015 21.5134 19.1998C22.8874 17.5227 23.5941 15.5025 23.5941 13.2155C23.5941 11.5384 23.1622 8.71776 20.7282 6.46888C21.4349 6.43077 22.1415 6.35453 22.7304 6.24018L23.3978 6.12584L23.437 4.41059C23.437 4.02942 23.3193 3.72449 23.0445 3.49579C22.8089 3.30521 22.4949 3.22898 22.1808 3.26709C18.8187 3.48967 16.981 3.31511 15.4013 3.16506C15.3578 3.16093 15.3145 3.15682 15.2714 3.15274C14.447 3.0765 13.6226 3.00027 12.7197 3.00027C6.12435 3.00027 1.29564 7.15498 1.29564 12.9487C1.3349 15.6169 2.47337 18.0182 4.43626 19.7716C4.47552 19.8097 5.37845 20.572 6.04584 21.0294L6.08508 21.0675C6.1434 21.099 6.20493 21.1325 6.26969 21.1678C7.38189 21.774 9.44641 22.8992 12.5626 22.9353H12.7589C14.9573 22.9353 17.038 22.4016 18.7654 21.4487C18.8036 21.5477 18.856 21.6814 18.9192 21.8425C19.44 23.1703 20.689 26.3545 20.689 27.2043C20.689 29.2245 19.8253 29.8725 17.2736 29.8725H10.0109V29.6819V25.6415C10.0109 24.9554 9.50052 24.4599 8.79388 24.4599H7.45911C6.75247 24.4599 6.24212 24.9554 6.24212 25.6415V29.7962H1.21712C0.510476 29.7962 0.00012207 30.2918 0.00012207 30.9397V31.7021C0.00012207 32.4565 0.593061 32.7369 0.858415 32.8624C0.874582 32.87 0.889532 32.8771 0.903059 32.8837L1.02083 32.9218H1.17786C6.39915 33.3792 6.47766 33.6841 6.98801 36.0855V36.1617C7.14504 36.5429 7.45912 37.0003 8.20502 37.0003H8.83313C9.50051 37.0003 10.0109 36.5048 10.0109 35.8187V33.8366H17.5876C21.9845 33.8366 24.4185 31.7021 24.4185 27.7761ZM19.629 13.063C19.629 14.8545 19.0009 16.4173 17.8232 17.5608C16.5669 18.7805 14.7611 19.3904 12.6411 19.3904C8.32278 19.3904 5.26068 16.7222 5.26068 12.9106C5.26068 8.71776 8.91164 6.54512 12.4841 6.54512C16.7239 6.54512 19.629 9.21327 19.629 13.063Z" fill="#E17900"/>
<path fill-rule="evenodd" clip-rule="evenodd" d="M43.8206 14.0345H42.4169V16.1804C41.8153 16.4951 41.1564 16.6668 40.5835 16.6668C38.9506 16.6668 37.6614 15.5223 37.6614 14.0059C37.6614 12.5181 38.9219 11.345 40.5548 11.345C41.4142 11.345 42.3309 11.6883 42.9612 12.232L43.8779 11.1447C43.0471 10.458 41.7867 10.0002 40.5548 10.0002C37.9766 10.0002 35.9999 11.7456 35.9999 14.0059C35.9999 16.2662 37.9479 18.0401 40.4689 18.0401C41.6434 18.0401 42.9612 17.6109 43.8206 17.0101V14.0345ZM54.105 11.4022V10.0575H47.1723V11.4022H49.8079V17.9543H51.4408V11.4022H54.105ZM43.8493 25.9942H42.4169V28.14C41.8439 28.4548 41.1851 28.655 40.5835 28.655C38.9506 28.655 37.6614 27.482 37.6614 25.9656C37.6614 24.4777 38.9506 23.3047 40.5835 23.3047C41.4429 23.3047 42.331 23.648 42.9898 24.2202L43.9066 23.1044C43.0471 22.4177 41.8153 21.9599 40.5835 21.9599C38.0052 21.9599 35.9999 23.7052 35.9999 25.9656C35.9999 28.2545 37.9479 29.9998 40.4975 29.9998C41.6721 29.9998 42.9612 29.5706 43.8493 28.9698V25.9942ZM51.9563 27.5957L53.4173 29.9133H55.2794L53.4173 27.3096C54.5059 26.8804 55.1075 25.9935 55.1075 24.7346C55.1075 22.9892 53.847 22.0164 51.6698 22.0164H48.1175V29.9133H49.7504V27.5957H51.6698H51.9563ZM51.6412 26.251H49.7504V23.3326H51.6412C52.873 23.3326 53.5319 23.819 53.5319 24.7918C53.5319 25.7646 52.873 26.251 51.6412 26.251ZM63.1287 29.9991C65.707 29.9991 67.655 28.2252 67.655 25.9649C67.655 23.7045 65.707 21.9592 63.1287 21.9592C60.5791 21.9592 58.6311 23.6759 58.6311 25.9649C58.6311 28.2252 60.5791 29.9991 63.1287 29.9991ZM63.1574 28.6257C61.6104 28.6257 60.2926 27.4527 60.2926 25.9649C60.2926 24.4771 61.5818 23.304 63.1574 23.304C64.7043 23.304 65.9935 24.4771 65.9935 25.9649C65.9935 27.4527 64.7043 28.6257 63.1574 28.6257ZM77.1946 26.6229C77.1946 27.8818 76.3925 28.6257 75.1033 28.6257C73.8142 28.6257 72.9548 27.8818 72.9548 26.6229V22.0164H71.3505V26.6229C71.3505 28.683 72.7829 29.9991 75.1033 29.9991C77.3951 29.9991 78.8275 28.683 78.8275 26.6229V22.0164H77.1946V26.6229ZM86.6482 27.5957C88.7681 27.5957 90 26.5371 90 24.7346C90 22.9892 88.7681 22.0164 86.6482 22.0164H83.1533V29.9133H84.7861V27.5957H86.6482ZM86.5623 23.3326C87.7655 23.3326 88.453 23.7904 88.453 24.7632C88.453 25.7646 87.7655 26.251 86.5623 26.251H84.7861V23.3326H86.5623Z" fill="white"/>
</svg>
