<svg width="198" height="56" viewBox="0 0 198 56" fill="none" xmlns="http://www.w3.org/2000/svg">
    <path fill-rule="evenodd" clip-rule="evenodd" d="M31.9996 9.00458V9.50638C31.9996 11.1484 30.6304 12.4795 28.9414 12.4795H28.4238C28.1371 12.4795 27.9062 12.2537 27.9062 11.9749V9.00458C27.9062 8.72581 28.1371 8.5 28.4238 8.5H31.4806C31.7673 8.5 31.9996 8.72581 31.9996 9.00458ZM27.907 36.919C27.907 35.1264 25.7982 29.3115 24.9458 27.6064L24.9009 27.5189C24.7812 27.344 24.6766 27.1983 24.5868 27.0817C26.1572 25.158 26.9648 22.8408 26.9648 20.2175C26.9648 18.2938 26.4712 15.0584 23.6895 12.4788C24.4971 12.4351 25.3047 12.3477 25.9777 12.2165L26.7404 12.0853L26.7853 10.1179C26.7853 9.68068 26.6507 9.33092 26.3366 9.06859C26.0674 8.84998 25.7085 8.76254 25.3496 8.80626C21.5071 9.06156 19.4069 8.86134 17.6015 8.68923C17.5518 8.68449 17.5023 8.67977 17.4531 8.67509C16.5109 8.58765 15.5687 8.50021 14.5367 8.50021C6.99918 8.50021 1.4806 13.2658 1.4806 19.9114C1.52547 22.9719 2.8266 25.7263 5.06992 27.7375C5.11479 27.7812 6.14672 28.6557 6.90945 29.1803L6.9543 29.224C7.02096 29.2601 7.09128 29.2986 7.16529 29.3391C8.43639 30.0344 10.7959 31.3251 14.3573 31.3664H14.5816C17.0941 31.3664 19.472 30.7543 21.4462 29.6612C21.4898 29.7747 21.5498 29.9282 21.622 30.1129C22.2172 31.636 23.6446 35.2883 23.6446 36.2631C23.6446 38.5804 22.6576 39.3236 19.7412 39.3236H11.441V39.105V34.4706C11.441 33.6836 10.8577 33.1152 10.0501 33.1152H8.52463C7.71703 33.1152 7.13378 33.6836 7.13378 34.4706V39.2362H1.39086C0.583267 39.2362 0 39.8046 0 40.5478V41.4222C0 42.2877 0.677657 42.6093 0.980919 42.7532C0.999394 42.7619 1.01648 42.7701 1.03194 42.7776L1.16653 42.8213H1.34599C7.31324 43.346 7.40296 43.6957 7.98623 46.4502V46.5376C8.16569 46.9748 8.52464 47.4995 9.3771 47.4995H10.095C10.8577 47.4995 11.441 46.9311 11.441 46.1441V43.8706H20.1002C25.1252 43.8706 27.907 41.4222 27.907 36.919ZM22.4332 20.0426C22.4332 22.0975 21.7154 23.8901 20.3694 25.2017C18.9337 26.6008 16.8698 27.3003 14.447 27.3003C9.5117 27.3003 6.01212 24.2398 6.01212 19.8677C6.01212 15.0584 10.1847 12.5663 14.2675 12.5663C19.1131 12.5663 22.4332 15.6268 22.4332 20.0426Z" fill="#E17900"/>
    <path d="M60.4748 25.6C60.4748 26.4533 60.2748 27.2333 59.8748 27.94C59.4882 28.6333 58.8948 29.1933 58.0948 29.62C57.3082 30.0333 56.3415 30.24 55.1948 30.24H53.2548V35H49.3348V20.9H55.1948C56.3282 20.9 57.2882 21.1 58.0748 21.5C58.8748 21.9 59.4748 22.4533 59.8748 23.16C60.2748 23.8667 60.4748 24.68 60.4748 25.6ZM54.8148 27.12C55.9215 27.12 56.4748 26.6133 56.4748 25.6C56.4748 24.5733 55.9215 24.06 54.8148 24.06H53.2548V27.12H54.8148ZM65.9697 20.2V35H62.0497V20.2H65.9697ZM67.562 29.38C67.562 28.22 67.7687 27.2067 68.182 26.34C68.6087 25.4733 69.182 24.8067 69.902 24.34C70.6354 23.8733 71.4487 23.64 72.342 23.64C73.1154 23.64 73.782 23.7933 74.342 24.1C74.902 24.4067 75.3354 24.82 75.642 25.34V23.78H79.562V35H75.642V33.44C75.3354 33.96 74.8954 34.3733 74.322 34.68C73.762 34.9867 73.102 35.14 72.342 35.14C71.4487 35.14 70.6354 34.9067 69.902 34.44C69.182 33.9733 68.6087 33.3067 68.182 32.44C67.7687 31.56 67.562 30.54 67.562 29.38ZM75.642 29.38C75.642 28.66 75.442 28.0933 75.042 27.68C74.6554 27.2667 74.1754 27.06 73.602 27.06C73.0154 27.06 72.5287 27.2667 72.142 27.68C71.7554 28.08 71.562 28.6467 71.562 29.38C71.562 30.1 71.7554 30.6733 72.142 31.1C72.5287 31.5133 73.0154 31.72 73.602 31.72C74.1754 31.72 74.6554 31.5133 75.042 31.1C75.442 30.6867 75.642 30.1133 75.642 29.38ZM88.4158 31.66V35H86.7158C83.8491 35 82.4158 33.58 82.4158 30.74V27.04H81.0358V23.78H82.4158V21.06H86.3558V23.78H88.3958V27.04H86.3558V30.8C86.3558 31.1067 86.4224 31.3267 86.5558 31.46C86.7024 31.5933 86.9424 31.66 87.2758 31.66H88.4158ZM89.5738 29.38C89.5738 28.22 89.7804 27.2067 90.1938 26.34C90.6204 25.4733 91.1938 24.8067 91.9138 24.34C92.6471 23.8733 93.4604 23.64 94.3538 23.64C95.1271 23.64 95.7938 23.7933 96.3538 24.1C96.9138 24.4067 97.3471 24.82 97.6538 25.34V23.78H101.574V35H97.6538V33.44C97.3471 33.96 96.9071 34.3733 96.3338 34.68C95.7738 34.9867 95.1138 35.14 94.3538 35.14C93.4604 35.14 92.6471 34.9067 91.9138 34.44C91.1938 33.9733 90.6204 33.3067 90.1938 32.44C89.7804 31.56 89.5738 30.54 89.5738 29.38ZM97.6538 29.38C97.6538 28.66 97.4538 28.0933 97.0538 27.68C96.6671 27.2667 96.1871 27.06 95.6138 27.06C95.0271 27.06 94.5404 27.2667 94.1538 27.68C93.7671 28.08 93.5738 28.6467 93.5738 29.38C93.5738 30.1 93.7671 30.6733 94.1538 31.1C94.5404 31.5133 95.0271 31.72 95.6138 31.72C96.1871 31.72 96.6671 31.5133 97.0538 31.1C97.4538 30.6867 97.6538 30.1133 97.6538 29.38ZM109.868 27.04H108.108V35H104.168V27.04H102.948V23.78H104.168V23.68C104.168 22.24 104.588 21.14 105.428 20.38C106.281 19.6067 107.501 19.22 109.088 19.22C109.408 19.22 109.654 19.2267 109.828 19.24V22.58C109.721 22.5667 109.574 22.56 109.388 22.56C108.961 22.56 108.648 22.66 108.448 22.86C108.248 23.0467 108.134 23.3533 108.108 23.78H109.868V27.04ZM116.488 35.14C115.368 35.14 114.362 34.9067 113.468 34.44C112.588 33.9733 111.895 33.3067 111.388 32.44C110.882 31.5733 110.628 30.5533 110.628 29.38C110.628 28.22 110.882 27.2067 111.388 26.34C111.908 25.4733 112.608 24.8067 113.488 24.34C114.382 23.8733 115.388 23.64 116.508 23.64C117.628 23.64 118.628 23.8733 119.508 24.34C120.402 24.8067 121.102 25.4733 121.608 26.34C122.128 27.2067 122.388 28.22 122.388 29.38C122.388 30.54 122.128 31.56 121.608 32.44C121.102 33.3067 120.402 33.9733 119.508 34.44C118.615 34.9067 117.608 35.14 116.488 35.14ZM116.488 31.74C117.035 31.74 117.488 31.54 117.848 31.14C118.222 30.7267 118.408 30.14 118.408 29.38C118.408 28.62 118.222 28.04 117.848 27.64C117.488 27.24 117.042 27.04 116.508 27.04C115.975 27.04 115.528 27.24 115.168 27.64C114.808 28.04 114.628 28.62 114.628 29.38C114.628 30.1533 114.802 30.74 115.148 31.14C115.495 31.54 115.942 31.74 116.488 31.74ZM127.903 25.76C128.343 25.12 128.877 24.6133 129.503 24.24C130.13 23.8667 130.803 23.68 131.523 23.68V27.86H130.423C129.57 27.86 128.937 28.0267 128.523 28.36C128.11 28.6933 127.903 29.2733 127.903 30.1V35H123.983V23.78H127.903V25.76ZM147.589 23.68C149.002 23.68 150.109 24.1067 150.909 24.96C151.722 25.8133 152.129 26.98 152.129 28.46V35H148.209V28.98C148.209 28.38 148.042 27.9133 147.709 27.58C147.375 27.2467 146.922 27.08 146.349 27.08C145.775 27.08 145.322 27.2467 144.989 27.58C144.655 27.9133 144.489 28.38 144.489 28.98V35H140.569V28.98C140.569 28.38 140.402 27.9133 140.069 27.58C139.749 27.2467 139.302 27.08 138.729 27.08C138.142 27.08 137.682 27.2467 137.349 27.58C137.015 27.9133 136.849 28.38 136.849 28.98V35H132.929V23.78H136.849V25.26C137.195 24.78 137.642 24.4 138.189 24.12C138.749 23.8267 139.389 23.68 140.109 23.68C140.935 23.68 141.669 23.86 142.309 24.22C142.962 24.58 143.475 25.0867 143.849 25.74C144.249 25.1267 144.775 24.6333 145.429 24.26C146.082 23.8733 146.802 23.68 147.589 23.68ZM153.636 29.38C153.636 28.22 153.843 27.2067 154.256 26.34C154.683 25.4733 155.256 24.8067 155.976 24.34C156.71 23.8733 157.523 23.64 158.416 23.64C159.19 23.64 159.856 23.7933 160.416 24.1C160.976 24.4067 161.41 24.82 161.716 25.34V23.78H165.636V35H161.716V33.44C161.41 33.96 160.97 34.3733 160.396 34.68C159.836 34.9867 159.176 35.14 158.416 35.14C157.523 35.14 156.71 34.9067 155.976 34.44C155.256 33.9733 154.683 33.3067 154.256 32.44C153.843 31.56 153.636 30.54 153.636 29.38ZM161.716 29.38C161.716 28.66 161.516 28.0933 161.116 27.68C160.73 27.2667 160.25 27.06 159.676 27.06C159.09 27.06 158.603 27.2667 158.216 27.68C157.83 28.08 157.636 28.6467 157.636 29.38C157.636 30.1 157.83 30.6733 158.216 31.1C158.603 31.5133 159.09 31.72 159.676 31.72C160.25 31.72 160.73 31.5133 161.116 31.1C161.516 30.6867 161.716 30.1133 161.716 29.38ZM180.698 25.54C180.471 25.1667 180.158 24.88 179.758 24.68C179.371 24.48 178.911 24.38 178.378 24.38C177.391 24.38 176.611 24.7 176.038 25.34C175.478 25.98 175.198 26.84 175.198 27.92C175.198 29.1333 175.498 30.06 176.098 30.7C176.711 31.3267 177.598 31.64 178.758 31.64C180.131 31.64 181.111 31.02 181.698 29.78H177.758V26.96H185.078V30.76C184.771 31.5067 184.318 32.2067 183.718 32.86C183.131 33.5133 182.385 34.0533 181.478 34.48C180.571 34.8933 179.538 35.1 178.378 35.1C176.965 35.1 175.711 34.8 174.618 34.2C173.538 33.5867 172.698 32.74 172.098 31.66C171.511 30.5667 171.218 29.32 171.218 27.92C171.218 26.5333 171.511 25.3 172.098 24.22C172.698 23.1267 173.538 22.28 174.618 21.68C175.698 21.0667 176.945 20.76 178.358 20.76C180.131 20.76 181.598 21.1867 182.758 22.04C183.918 22.8933 184.638 24.06 184.918 25.54H180.698ZM197.455 20.9V24.02H193.695V35H189.775V24.02H186.055V20.9H197.455Z" fill="#0A131C"/>
</svg>
