<svg width="40" height="40" viewBox="0 0 40 40" fill="none" xmlns="http://www.w3.org/2000/svg">
<path fill-rule="evenodd" clip-rule="evenodd" d="M33.9997 3.4399V3.87737C33.9997 5.30887 32.8017 6.46939 31.3239 6.46939H30.871C30.6201 6.46939 30.4181 6.27253 30.4181 6.02949V3.4399C30.4181 3.19686 30.6201 3 30.871 3H33.5456C33.7965 3 33.9997 3.19686 33.9997 3.4399ZM30.4184 27.7764C30.4184 26.2136 28.5733 21.1441 27.8274 19.6576L27.7881 19.5814C27.6834 19.4289 27.5918 19.3018 27.5133 19.2002C28.8873 17.5231 29.594 15.5029 29.594 13.2159C29.594 11.5388 29.1621 8.71813 26.7281 6.46925C27.4348 6.43113 28.1414 6.3549 28.7303 6.24055L29.3977 6.1262L29.4369 4.41096C29.4369 4.02979 29.3191 3.72486 29.0443 3.49616C28.8088 3.30558 28.4947 3.22934 28.1807 3.26746C24.8185 3.49003 22.9809 3.31548 21.4012 3.16543C21.3577 3.1613 21.3144 3.15719 21.2713 3.1531C20.4469 3.07687 19.6225 3.00064 18.7195 3.00064C12.1242 3.00064 7.29552 7.15535 7.29552 12.9491C7.33477 15.6172 8.47325 18.0186 10.4361 19.7719C10.4754 19.8101 11.3783 20.5724 12.0457 21.0298L12.085 21.0679C12.1433 21.0994 12.2048 21.1329 12.2696 21.1682C13.3818 21.7744 15.4463 22.8996 18.5625 22.9356H18.7588C20.9572 22.9356 23.0379 22.402 24.7652 21.4491C24.8034 21.548 24.8559 21.6818 24.9191 21.8428C25.4399 23.1707 26.6889 26.3548 26.6889 27.2047C26.6889 29.2248 25.8252 29.8728 23.2734 29.8728H16.0107V29.6822V25.6419C16.0107 24.9558 15.5004 24.4603 14.7938 24.4603H13.459C12.7523 24.4603 12.242 24.9558 12.242 25.6419V29.7966H7.21699C6.51035 29.7966 6 30.2921 6 30.9401V31.7024C6 32.4569 6.59294 32.7373 6.85829 32.8628C6.87446 32.8704 6.88941 32.8775 6.90294 32.884L7.02071 32.9222H7.17773C12.399 33.3796 12.4775 33.6845 12.9879 36.0858V36.1621C13.1449 36.5432 13.459 37.0006 14.2049 37.0006H14.833C15.5004 37.0006 16.0107 36.5051 16.0107 35.819V33.837H23.5875C27.9844 33.837 30.4184 31.7024 30.4184 27.7764ZM25.6289 13.0634C25.6289 14.8549 25.0008 16.4177 23.8231 17.5612C22.5668 18.7809 20.7609 19.3908 18.641 19.3908C14.3227 19.3908 11.2606 16.7226 11.2606 12.911C11.2606 8.71813 14.9115 6.54549 18.484 6.54549C22.7238 6.54549 25.6289 9.21364 25.6289 13.0634Z" fill="#E17900"/>
</svg>
