<svg width="40" height="40" viewBox="0 0 40 40" fill="none" xmlns="http://www.w3.org/2000/svg">
<rect width="40" height="40" rx="20" fill="white"/>
<path d="M30.5333 32C27.8889 32 25.2222 31.3833 22.5333 30.15C19.8444 28.9167 17.3667 27.1667 15.1 24.9C12.8333 22.6333 11.0833 20.1556 9.85 17.4667C8.61667 14.7778 8 12.1111 8 9.46667C8 9.04756 8.13967 8.69833 8.419 8.419C8.69833 8.13967 9.04756 8 9.46667 8H14.3777C14.6888 8 14.9592 8.10922 15.189 8.32767C15.4186 8.54633 15.5703 8.81489 15.6443 9.13333L16.5317 13.481C16.5772 13.8121 16.5703 14.1037 16.511 14.3557C16.4519 14.6074 16.3317 14.8239 16.1503 15.005L12.8557 18.3333C13.389 19.2593 13.9723 20.1316 14.6057 20.95C15.239 21.7684 15.9371 22.5481 16.7 23.289C17.4778 24.0814 18.2963 24.8092 19.1557 25.4723C20.0148 26.1352 20.9184 26.7259 21.8667 27.2443L25.0223 24.0223C25.237 23.7926 25.4954 23.6314 25.7977 23.539C26.1001 23.4463 26.3972 23.4222 26.689 23.4667L30.8667 24.3557C31.1927 24.4446 31.463 24.6171 31.6777 24.8733C31.8926 25.1296 32 25.4162 32 25.7333V30.5333C32 30.9524 31.8603 31.3017 31.581 31.581C31.3017 31.8603 30.9524 32 30.5333 32ZM11.7667 16.2667L14.3 13.711L13.6 10.2223H10.2333C10.3 11.1481 10.4519 12.1037 10.689 13.089C10.9259 14.0741 11.2851 15.1333 11.7667 16.2667ZM23.9443 28.311C24.8408 28.7186 25.7946 29.0482 26.8057 29.3C27.8168 29.5518 28.8074 29.7037 29.7777 29.7557V26.4L26.4443 25.7223L23.9443 28.311Z" fill="#E17900"/>
</svg>
